<svg width="126" height="40" viewBox="0 0 126 40" fill="none" xmlns="http://www.w3.org/2000/svg">
<path d="M66.281 17.573L60.3306 29.3703H57.4016L51.4809 17.573V31.161H46.569V9.57258H53.2146L58.8809 21.4331L64.5821 9.57258H71.1947V31.161H66.281V17.573Z" fill="#5A5A5A"/>
<path d="M95.4422 31.161L93.3949 26.4978H84.1688L82.1214 31.161H76.8959L86.406 9.57258H91.1594L100.67 31.161H95.4422ZM88.7966 15.9975L86.0262 22.2669H91.5357L88.7966 15.9975Z" fill="#5A5A5A"/>
<path d="M116.48 26.8994C118.895 26.8994 120.868 25.9613 122.401 24.0885L125.55 27.2685C123.051 30.0281 120.106 31.4071 116.715 31.4071C113.325 31.4071 110.533 30.3562 108.34 28.2579C106.146 26.1578 105.048 23.5058 105.048 20.3053C105.048 17.1048 106.167 14.4323 108.401 12.2912C110.638 10.1501 113.372 9.07875 116.604 9.07875C120.216 9.07875 123.239 10.427 125.675 13.1251L122.621 16.5221C121.066 14.6288 119.136 13.6804 116.825 13.6804C114.977 13.6804 113.398 14.2717 112.086 15.4558C110.774 16.64 110.119 18.236 110.119 20.2421C110.119 22.2482 110.737 23.8612 111.976 25.0762C113.213 26.2894 114.715 26.8977 116.479 26.8977" fill="#5A5A5A"/>
<path d="M27.7368 13.865H34.5949H38.6949V9.57258H22.8231V13.865H27.7368Z" fill="#349F49"/>
<path d="M125.677 0.987772H0.272705V5.28017H125.677V0.987772Z" fill="#5A5A5A"/>
<path d="M125.677 35.4534H0.272705V39.7458H125.677V35.4534Z" fill="#5A5A5A"/>
<path d="M9.50229 13.7112V9.57258H14.4456V23.6562C14.4456 26.2296 13.7695 28.1553 12.4156 29.4318C11.06 30.7082 9.32282 31.3456 7.20404 31.3456C4.55904 31.3456 2.24684 30.3477 0.274414 28.3501L2.82707 24.8899C4.14957 26.2894 5.53654 26.99 6.98275 26.99C7.67449 26.99 8.2704 26.7268 8.76176 26.2039C9.25313 25.6793 9.50229 24.8899 9.50229 23.8407V13.7112Z" fill="#5A5A5A"/>
<path d="M28.1027 22.4207H37.8829H38.6949V18.3129H35.4731H28.1027H22.8231V22.4207H28.1027Z" fill="#E13000"/>
<path d="M36.5377 26.8994H27.6305H22.8231V31.161H38.6949V26.8994H36.5377Z" fill="#0072BC"/>
</svg>
