<?xml version="1.0" encoding="UTF-8"?>
<svg id="Layer_1" xmlns="http://www.w3.org/2000/svg" version="1.1" viewBox="0 0 126 40">
  <!-- Generator: Adobe Illustrator 29.2.1, SVG Export Plug-In . SVG Version: 2.1.0 Build 116)  -->
  <defs>
    <style>
      .st0 {
        fill: #fff;
      }
    </style>
  </defs>
  <path class="st0" d="M66.3,17.6l-6,11.8h-2.9l-5.9-11.8v13.6h-4.9V9.6h6.6l5.7,11.9,5.7-11.9h6.6v21.6h-4.9v-13.6Z"/>
  <path class="st0" d="M95.4,31.2l-2-4.7h-9.2l-2,4.7h-5.2l9.5-21.6h4.8l9.5,21.6h-5.2ZM88.8,16l-2.8,6.3h5.5l-2.7-6.3Z"/>
  <path class="st0" d="M116.5,26.9c2.4,0,4.4-.9,5.9-2.8l3.1,3.2c-2.5,2.8-5.4,4.1-8.8,4.1s-6.2-1.1-8.4-3.1c-2.2-2.1-3.3-4.8-3.3-8s1.1-5.9,3.4-8c2.2-2.1,5-3.2,8.2-3.2s6.6,1.3,9.1,4l-3.1,3.4c-1.6-1.9-3.5-2.8-5.8-2.8s-3.4.6-4.7,1.8c-1.3,1.2-2,2.8-2,4.8s.6,3.6,1.9,4.8c1.2,1.2,2.7,1.8,4.5,1.8"/>
  <path class="st0" d="M27.7,13.9h11v-4.3h-15.9v4.3h4.9Z"/>
  <path class="st0" d="M125.7,1H.3v4.3h125.4V1Z"/>
  <path class="st0" d="M125.7,35.5H.3v4.3h125.4v-4.3Z"/>
  <path class="st0" d="M9.5,13.7v-4.1h4.9v14.1c0,2.6-.7,4.5-2,5.8-1.4,1.3-3.1,1.9-5.2,1.9s-5-1-6.9-3l2.6-3.5c1.3,1.4,2.7,2.1,4.2,2.1s1.3-.3,1.8-.8c.5-.5.7-1.3.7-2.4v-10.1Z"/>
  <path class="st0" d="M28.1,22.4h10.6v-4.1h-15.9v4.1h5.3Z"/>
  <path class="st0" d="M36.5,26.9h-13.7v4.3h15.9v-4.3h-2.2Z"/>
</svg>